<svg width="1440" height="1024" viewBox="0 0 1440 1024" fill="none" xmlns="http://www.w3.org/2000/svg">
<g opacity="0.01">
<path fill-rule="evenodd" clip-rule="evenodd" d="M1470.7 389.112C1470.7 370.099 1455.3 354.686 1436.29 354.686C1417.27 354.686 1401.87 370.099 1401.87 389.112C1401.87 408.124 1417.27 423.538 1436.29 423.538C1455.3 423.538 1470.7 408.124 1470.7 389.112ZM1436.29 313.375C1478.11 313.375 1512 347.283 1512 389.112C1512 430.94 1478.11 464.848 1436.29 464.848C1394.46 464.848 1360.57 430.94 1360.57 389.112C1360.57 347.283 1394.46 313.375 1436.29 313.375Z" fill="#FD6234"/>
<path fill-rule="evenodd" clip-rule="evenodd" d="M1434.81 409.446C1423.43 409.446 1414.19 400.21 1414.19 388.817C1414.19 377.425 1423.43 368.188 1434.81 368.188C1446.2 368.188 1455.43 377.425 1455.43 388.817C1455.43 400.21 1446.2 409.446 1434.81 409.446Z" fill="#463C74"/>
<path fill-rule="evenodd" clip-rule="evenodd" d="M376.574 575.949C376.574 617.777 342.72 651.685 300.958 651.685H163.473C121.711 651.685 87.8569 617.777 87.8569 575.949C87.8569 534.12 121.711 500.212 163.473 500.212H300.958C342.72 500.212 376.574 534.12 376.574 575.949ZM300.958 610.374C319.94 610.374 335.329 594.961 335.329 575.949C335.329 556.936 319.94 541.523 300.958 541.523H163.473C144.491 541.523 129.102 556.936 129.102 575.949C129.102 594.961 144.491 610.374 163.473 610.374H300.958Z" fill="#B4D51E"/>
<path fill-rule="evenodd" clip-rule="evenodd" d="M5.08008 984.373C5.08008 995.766 14.3158 1005 25.7088 1005H89.658C111.332 1005 130.877 995.885 144.668 981.277C158.459 995.885 178.004 1005 199.678 1005H262.939C304.714 1005 338.578 971.138 338.578 929.363C338.578 917.971 329.342 908.735 317.949 908.735C306.557 908.735 297.321 917.971 297.321 929.363C297.321 948.351 281.928 963.744 262.939 963.744H199.678C180.69 963.744 165.297 948.351 165.297 929.363V790.463C165.297 749.45 132.047 716.2 91.0332 716.2V757.458C109.262 757.458 124.039 772.235 124.039 790.463V929.363C124.039 948.351 108.646 963.744 89.658 963.744H25.7088C14.3158 963.744 5.08008 972.981 5.08008 984.373Z" fill="#C6C3C6"/>
<path d="M277.88 836.112C296.887 836.112 312.296 820.699 312.296 801.686C312.296 782.673 296.887 767.26 277.88 767.26C258.873 767.26 243.464 782.673 243.464 801.686C243.464 813.093 234.219 822.341 222.815 822.341C211.411 822.341 202.166 813.093 202.166 801.686C202.166 759.857 236.064 725.949 277.88 725.949C319.697 725.949 353.595 759.857 353.595 801.686C353.595 843.515 319.697 877.423 277.88 877.423C266.476 877.423 257.231 868.175 257.231 856.767C257.231 845.36 266.476 836.112 277.88 836.112Z" fill="#E5E0D5"/>
<path d="M229.331 555.615C254.716 555.615 275.126 535.205 275.126 510.232C275.126 485.259 254.716 464.849 229.331 464.849C215.307 464.849 202.794 471.068 194.374 480.912C186.962 489.579 173.913 490.609 165.228 483.213C156.543 475.817 155.51 462.796 162.923 454.131C178.888 435.463 202.736 423.592 229.331 423.592C277.367 423.592 316.474 462.29 316.474 510.232C316.474 558.175 277.367 596.873 229.331 596.873C217.913 596.873 208.657 587.637 208.657 576.244C208.657 564.852 217.913 555.615 229.331 555.615Z" fill="#E5E0D5"/>
<path fill-rule="evenodd" clip-rule="evenodd" d="M557.348 24.773C570.788 11.3657 570.788 -10.3721 557.348 -23.7795C543.907 -37.1869 522.117 -37.1869 508.677 -23.7795C495.236 -10.3721 495.236 11.3657 508.677 24.773C516.741 32.8174 516.741 45.8606 508.677 53.9039C500.612 61.9485 487.537 61.9485 479.474 53.9039C449.905 24.4082 449.905 -23.4146 479.474 -52.911C509.041 -82.4073 556.981 -82.4073 586.55 -52.911C616.119 -23.4146 616.119 24.4082 586.55 53.9039C578.486 61.9485 565.412 61.9485 557.348 53.9039C549.283 45.8606 549.283 32.8174 557.348 24.773Z" fill="#463C74"/>
<path fill-rule="evenodd" clip-rule="evenodd" d="M480.425 25.3115C488.479 17.2555 501.536 17.2555 509.59 25.3115C517.644 33.3675 517.644 46.4287 509.59 54.4848C501.536 62.5409 488.479 62.5409 480.425 54.4848C472.371 46.4287 472.371 33.3675 480.425 25.3115Z" fill="#FD6234"/>
<path fill-rule="evenodd" clip-rule="evenodd" d="M96.1061 775.458C84.7169 775.458 75.4834 766.221 75.4834 754.829C75.4834 743.436 84.7169 734.2 96.1061 734.2C107.495 734.2 116.729 743.436 116.729 754.829C116.729 766.221 107.495 775.458 96.1061 775.458Z" fill="#FD6234"/>
<path fill-rule="evenodd" clip-rule="evenodd" d="M37.1305 841.764C37.1305 822.751 21.722 807.338 2.71469 807.338C-16.2926 807.338 -31.7011 822.751 -31.7011 841.764C-31.7011 860.777 -16.2926 876.19 2.71469 876.19C21.722 876.19 37.1305 860.777 37.1305 841.764ZM2.71468 766.027C44.5308 766.027 78.4294 799.935 78.4294 841.764C78.4294 883.593 44.5308 917.501 2.71468 917.501C-39.1014 917.501 -73 883.593 -73 841.764C-73 799.935 -39.1014 766.027 2.71468 766.027Z" fill="#C6C3C6"/>
<path d="M66.0559 664.107C42.5725 664.107 23.5355 683.214 23.5355 706.785V786.634C23.5355 798.039 14.3241 807.285 2.9611 807.285C-8.40186 807.285 -17.6133 798.039 -17.6133 786.634V706.785C-17.6133 660.405 19.8466 622.806 66.0559 622.806V664.107Z" fill="#E5E0D5"/>
<path fill-rule="evenodd" clip-rule="evenodd" d="M3.0094 807.285C-8.38023 807.285 -17.6133 798.049 -17.6133 786.656C-17.6133 775.263 -8.38023 766.027 3.0094 766.027C14.399 766.027 23.6321 775.263 23.6321 786.656C23.6321 798.049 14.399 807.285 3.0094 807.285Z" fill="#FD6234"/>
<path fill-rule="evenodd" clip-rule="evenodd" d="M6.58827 450.061C25.6217 449.813 40.8505 434.202 40.603 415.19C40.3554 396.178 24.7252 380.965 5.69188 381.213C-5.72817 381.362 -15.1063 372.235 -15.2548 360.827C-15.4034 349.421 -6.26611 340.053 5.15394 339.904C47.0273 339.36 81.4135 372.826 81.9581 414.653C82.5026 456.478 48.9995 490.825 7.12621 491.369C-4.29384 491.518 -13.672 482.391 -13.8206 470.983C-13.9691 459.577 -4.83178 450.209 6.58827 450.061Z" fill="#FFC735"/>
<path fill-rule="evenodd" clip-rule="evenodd" d="M107.049 598.082C88.0308 598.082 72.6136 613.486 72.6136 632.488C72.6136 651.49 88.0308 666.895 107.049 666.895C182.359 666.895 243.411 727.896 243.411 803.144C243.411 814.545 234.16 823.788 222.75 823.788C211.339 823.788 202.089 814.545 202.089 803.144C202.089 750.698 159.538 708.182 107.049 708.182C65.2087 708.182 31.2917 674.293 31.2917 632.488C31.2917 590.683 65.2087 556.794 107.049 556.794C118.459 556.794 127.709 566.037 127.709 577.438C127.709 588.839 118.459 598.082 107.049 598.082Z" fill="#FFC735"/>
<path fill-rule="evenodd" clip-rule="evenodd" d="M412.463 947.602C412.463 928.653 397.055 913.291 378.047 913.291C359.04 913.291 343.632 928.653 343.632 947.602C343.632 958.972 334.386 968.189 322.982 968.189C311.578 968.189 302.333 958.972 302.333 947.602C302.333 905.913 336.231 872.118 378.047 872.118C419.864 872.118 453.762 905.913 453.762 947.602C453.762 958.972 444.517 968.189 433.113 968.189C421.709 968.189 412.463 958.972 412.463 947.602Z" fill="#463C74"/>
<path d="M376.574 580.369C376.574 632.777 419.046 675.261 471.439 675.261C482.828 675.261 492.061 684.497 492.061 695.89C492.061 707.282 482.828 716.518 471.439 716.518C396.268 716.518 335.329 655.562 335.329 580.369C335.329 568.976 344.563 559.74 355.952 559.74C367.341 559.74 376.574 568.976 376.574 580.369Z" fill="#E5E0D5"/>
<path fill-rule="evenodd" clip-rule="evenodd" d="M796.647 -36.6418C720.567 -36.6418 658.892 25.0513 658.892 101.154C658.892 112.569 649.64 121.823 638.228 121.823C626.817 121.823 617.565 112.569 617.565 101.154C617.565 2.22066 697.743 -77.9805 796.647 -77.9805C808.059 -77.9805 817.31 -68.7265 817.31 -57.3111C817.31 -45.8957 808.059 -36.6418 796.647 -36.6418Z" fill="#FFC735"/>
<path fill-rule="evenodd" clip-rule="evenodd" d="M993.444 90.5643C993.444 20.6149 936.755 -36.0902 866.826 -36.0902C855.425 -36.0902 846.182 -45.3356 846.182 -56.7404C846.182 -68.1453 855.425 -77.3906 866.826 -77.3906C959.559 -77.3906 1034.73 -2.1946 1034.73 90.5643C1034.73 101.969 1025.49 111.214 1014.09 111.214C1002.69 111.214 993.444 101.969 993.444 90.5643Z" fill="#B4D51E"/>
<path fill-rule="evenodd" clip-rule="evenodd" d="M349.47 482.531C349.47 427.844 305.152 383.513 250.481 383.513C239.092 383.513 229.859 374.277 229.859 362.885C229.859 351.492 239.092 342.256 250.481 342.256C327.93 342.256 390.716 405.059 390.716 482.531C390.716 493.923 381.482 503.16 370.093 503.16C358.704 503.16 349.47 493.923 349.47 482.531Z" fill="#FFC735"/>
<path fill-rule="evenodd" clip-rule="evenodd" d="M-14.0763 471.012C-14.2244 459.619 -5.11225 450.263 6.27639 450.116C17.665 449.968 27.0174 459.083 27.1654 470.474C27.3135 481.867 18.2013 491.221 6.81271 491.37C-4.57578 491.518 -13.9281 482.403 -14.0763 471.012Z" fill="#FD6234"/>
<path fill-rule="evenodd" clip-rule="evenodd" d="M222.788 823.788C211.399 823.788 202.166 814.551 202.166 803.159C202.166 791.766 211.399 782.53 222.788 782.53C234.177 782.53 243.411 791.766 243.411 803.159C243.411 814.551 234.177 823.788 222.788 823.788Z" fill="#FD6234"/>
<path fill-rule="evenodd" clip-rule="evenodd" d="M322.955 968.189C311.566 968.189 302.333 958.953 302.333 947.56C302.333 936.168 311.566 926.932 322.955 926.932C334.345 926.932 343.578 936.168 343.578 947.56C343.578 958.953 334.345 968.189 322.955 968.189Z" fill="#FD6234"/>
<path fill-rule="evenodd" clip-rule="evenodd" d="M222.788 878.601C211.399 878.601 202.166 869.365 202.166 857.972C202.166 846.58 211.399 837.344 222.788 837.344C234.177 837.344 243.411 846.58 243.411 857.972C243.411 869.365 234.177 878.601 222.788 878.601Z" fill="#463C74"/>
<path fill-rule="evenodd" clip-rule="evenodd" d="M222.788 934.003C211.399 934.003 202.166 924.767 202.166 913.375C202.166 901.982 211.399 892.746 222.788 892.746C234.177 892.746 243.411 901.982 243.411 913.375C243.411 924.767 234.177 934.003 222.788 934.003Z" fill="#463C74"/>
<path fill-rule="evenodd" clip-rule="evenodd" d="M378.342 975.261C366.953 975.261 357.719 966.025 357.719 954.633C357.719 943.24 366.953 934.004 378.342 934.004C389.731 934.004 398.965 943.24 398.965 954.633C398.965 966.025 389.731 975.261 378.342 975.261Z" fill="#FD6234"/>
<path fill-rule="evenodd" clip-rule="evenodd" d="M378.342 1030.07C366.953 1030.07 357.719 1020.84 357.719 1009.45C357.719 998.054 366.953 988.817 378.342 988.817C389.731 988.817 398.965 998.054 398.965 1009.45C398.965 1020.84 389.731 1030.07 378.342 1030.07Z" fill="#FD6234"/>
<path fill-rule="evenodd" clip-rule="evenodd" d="M355.952 600.998C344.563 600.998 335.329 591.761 335.329 580.369C335.329 568.976 344.563 559.74 355.952 559.74C367.341 559.74 376.574 568.976 376.574 580.369C376.574 591.761 367.341 600.998 355.952 600.998Z" fill="#FD6234"/>
<path fill-rule="evenodd" clip-rule="evenodd" d="M108.48 598.051C97.0904 598.051 87.8569 588.815 87.8569 577.423C87.8569 566.03 97.0904 556.794 108.48 556.794C119.869 556.794 129.102 566.03 129.102 577.423C129.102 588.815 119.869 598.051 108.48 598.051Z" fill="#FD6234"/>
<path fill-rule="evenodd" clip-rule="evenodd" d="M504.971 573.591C504.971 554.579 489.562 539.165 470.555 539.165C451.546 539.165 436.139 554.579 436.139 573.591C436.139 592.604 451.546 608.017 470.555 608.017C489.562 608.017 504.971 592.604 504.971 573.591ZM470.555 497.854C512.37 497.854 546.269 531.763 546.269 573.591C546.269 615.42 512.37 649.328 470.555 649.328C428.738 649.328 394.84 615.42 394.84 573.591C394.84 531.763 428.738 497.854 470.555 497.854Z" fill="#FFC735"/>
<path fill-rule="evenodd" clip-rule="evenodd" d="M562.768 160.723C562.768 172.116 572.013 181.352 583.42 181.352C602.43 181.352 617.842 196.745 617.842 215.733V353.258C617.842 372.246 602.43 387.639 583.42 387.639C572.013 387.639 562.768 396.875 562.768 408.268C562.768 419.66 572.013 428.896 583.42 428.896C605.119 428.896 624.687 419.78 638.494 405.172C652.3 419.78 671.869 428.896 693.568 428.896H756.903C798.727 428.896 832.63 395.032 832.63 353.258C832.63 341.865 823.383 332.629 811.977 332.629C800.571 332.629 791.325 341.865 791.325 353.258C791.325 372.246 775.913 387.639 756.903 387.639H693.568C674.558 387.639 659.147 372.246 659.147 353.258V215.733C659.147 173.959 625.242 140.095 583.42 140.095C572.013 140.095 562.768 149.331 562.768 160.723Z" fill="#B4D51E"/>
<path d="M604.013 408.4C604.013 397.002 594.768 387.761 583.364 387.761C564.358 387.761 548.95 372.36 548.95 353.363V215.77C548.95 196.773 564.358 181.372 583.364 181.372C594.768 181.372 604.013 172.132 604.013 160.734C604.013 149.335 594.768 140.095 583.364 140.095C541.549 140.095 507.652 173.975 507.652 215.77V353.363C507.652 355.057 507.707 356.737 507.817 358.401C473.451 368.918 448.459 400.876 448.459 438.67V518.474C448.459 529.872 457.704 539.112 469.108 539.112C480.511 539.112 489.756 529.872 489.756 518.474V438.67C489.756 418.798 503.354 402.098 521.757 397.362C535.492 416.54 557.968 429.039 583.364 429.039C594.768 429.039 604.013 419.798 604.013 408.4Z" fill="#E5E0D5"/>
<path fill-rule="evenodd" clip-rule="evenodd" d="M583.096 428.95C564.087 428.95 548.68 444.363 548.68 463.375C548.68 482.388 564.087 497.801 583.096 497.801C602.103 497.801 617.512 482.388 617.512 463.375C617.512 451.968 626.756 442.72 638.161 442.72C649.565 442.72 658.81 451.968 658.81 463.375C658.81 505.204 624.911 539.112 583.096 539.112C541.279 539.112 507.381 505.204 507.381 463.375C507.381 421.547 541.279 387.639 583.096 387.639C594.5 387.639 603.745 396.887 603.745 408.294C603.745 419.701 594.5 428.95 583.096 428.95Z" fill="#463C74"/>
<path d="M1080.16 567.698C1080.16 548.685 1095.56 533.272 1114.57 533.272C1133.58 533.272 1148.99 548.685 1148.99 567.698C1148.99 586.71 1133.58 602.123 1114.57 602.123C1103.17 602.123 1093.92 611.372 1093.92 622.779C1093.92 634.186 1103.17 643.434 1114.57 643.434C1156.39 643.434 1190.29 609.526 1190.29 567.698C1190.29 525.869 1156.39 491.961 1114.57 491.961C1072.76 491.961 1038.86 525.869 1038.86 567.698C1038.86 579.105 1048.1 588.353 1059.51 588.353C1070.91 588.353 1080.16 579.105 1080.16 567.698Z" fill="#E5E0D5"/>
<path fill-rule="evenodd" clip-rule="evenodd" d="M583.39 428.896C572 428.896 562.768 419.66 562.768 408.267C562.768 396.875 572 387.639 583.39 387.639C594.779 387.639 604.013 396.875 604.013 408.267C604.013 419.66 594.779 428.896 583.39 428.896Z" fill="#FD6234"/>
<path fill-rule="evenodd" clip-rule="evenodd" d="M583.39 181.352C572 181.352 562.768 172.116 562.768 160.723C562.768 149.331 572 140.095 583.39 140.095C594.779 140.095 604.013 149.331 604.013 160.723C604.013 172.116 594.779 181.352 583.39 181.352Z" fill="#FD6234"/>
<path fill-rule="evenodd" clip-rule="evenodd" d="M469.082 539.112C457.692 539.112 448.459 529.876 448.459 518.483C448.459 507.091 457.692 497.854 469.082 497.854C480.471 497.854 489.704 507.091 489.704 518.483C489.704 529.876 480.471 539.112 469.082 539.112Z" fill="#FD6234"/>
<path fill-rule="evenodd" clip-rule="evenodd" d="M470.26 593.925C458.871 593.925 449.638 584.689 449.638 573.297C449.638 561.904 458.871 552.668 470.26 552.668C481.65 552.668 490.883 561.904 490.883 573.297C490.883 584.689 481.65 593.925 470.26 593.925Z" fill="#463C74"/>
<path fill-rule="evenodd" clip-rule="evenodd" d="M1336.24 390.338C1336.24 432.141 1302.34 466.027 1260.51 466.027H1122.83C1081.01 466.027 1047.11 432.141 1047.11 390.338C1047.11 348.536 1081.01 314.65 1122.83 314.65H1166.89V271.301C1166.89 229.5 1200.79 195.612 1242.62 195.612H1380.3C1399.31 195.612 1414.72 180.209 1414.72 161.208V97.9046C1414.72 78.904 1399.31 63.5006 1380.3 63.5006C1368.9 63.5006 1359.65 54.2583 1359.65 42.8582C1359.65 31.4577 1368.9 22.2158 1380.3 22.2158C1422.13 22.2158 1456.02 56.1024 1456.02 97.9046V161.208C1456.02 182.896 1446.9 202.456 1432.27 216.254C1446.9 230.054 1456.02 249.612 1456.02 271.301V333.228C1456.02 344.628 1446.77 353.87 1435.37 353.87C1423.97 353.87 1414.72 344.628 1414.72 333.228V271.301C1414.72 252.3 1399.31 236.897 1380.3 236.897H1242.62C1223.61 236.897 1208.19 252.3 1208.19 271.301V314.65H1260.51C1302.34 314.65 1336.24 348.536 1336.24 390.338ZM1122.83 355.934C1103.82 355.934 1088.41 371.338 1088.41 390.338C1088.41 409.339 1103.82 424.742 1122.83 424.742H1260.51C1279.52 424.742 1294.93 409.339 1294.93 390.338C1294.93 371.338 1279.52 355.934 1260.51 355.934H1122.83Z" fill="#B4D51E"/>
<path fill-rule="evenodd" clip-rule="evenodd" d="M1027.16 192.109C1050.65 201.661 1077.25 190.456 1086.69 167.347C1096.12 144.237 1084.95 117.669 1061.46 108.117C1048.49 102.84 1034.56 103.886 1023.05 109.826C1012.92 115.057 1000.45 111.099 995.211 100.987C989.97 90.8757 993.936 78.4389 1004.07 73.2085C1025.9 61.9425 1052.45 59.9306 1077.06 69.9392C1121.5 88.0146 1143.06 138.543 1124.94 182.906C1106.82 227.27 1056.02 248.363 1011.57 230.288C1001.01 225.991 995.931 213.961 1000.24 203.419C1004.54 192.876 1016.6 187.813 1027.16 192.109Z" fill="#FFC735"/>
<path fill-rule="evenodd" clip-rule="evenodd" d="M1335.82 394.711C1335.82 447.119 1378.29 489.603 1430.69 489.603C1442.07 489.603 1451.31 498.839 1451.31 510.231C1451.31 521.624 1442.07 530.86 1430.69 530.86C1355.51 530.86 1294.58 469.904 1294.58 394.711C1294.58 383.318 1303.82 374.082 1315.2 374.082C1326.58 374.082 1335.82 383.318 1335.82 394.711Z" fill="#FFC735"/>
<path fill-rule="evenodd" clip-rule="evenodd" d="M1315.2 414.161C1303.82 414.161 1294.58 404.925 1294.58 393.532C1294.58 382.139 1303.82 372.903 1315.2 372.903C1326.58 372.903 1335.82 382.139 1335.82 393.532C1335.82 404.925 1326.58 414.161 1315.2 414.161Z" fill="#FD6234"/>
<path fill-rule="evenodd" clip-rule="evenodd" d="M562.714 311.649C562.714 292.7 547.305 277.338 528.298 277.338C509.29 277.338 493.882 292.7 493.882 311.649C493.882 323.018 484.637 332.236 473.233 332.236C461.828 332.236 452.583 323.018 452.583 311.649C452.583 269.96 486.482 236.165 528.298 236.165C570.113 236.165 604.013 269.96 604.013 311.649C604.013 323.018 594.767 332.236 583.363 332.236C571.958 332.236 562.714 323.018 562.714 311.649Z" fill="#FFC735"/>
<path fill-rule="evenodd" clip-rule="evenodd" d="M901.515 354.675C901.515 335.725 886.107 320.364 867.099 320.364C848.092 320.364 832.684 335.725 832.684 354.675C832.684 366.044 823.438 375.261 812.034 375.261C800.63 375.261 791.385 366.044 791.385 354.675C791.385 312.985 825.283 279.19 867.099 279.19C908.916 279.19 942.814 312.985 942.814 354.675C942.814 366.044 933.569 375.261 922.165 375.261C910.761 375.261 901.515 366.044 901.515 354.675Z" fill="#463C74"/>
<path d="M382.466 1068.97C434.859 1068.97 477.331 1026.49 477.331 974.083C477.331 962.69 486.564 953.454 497.953 953.454C509.343 953.454 518.576 962.69 518.576 974.083C518.576 1049.28 457.637 1110.23 382.466 1110.23C371.077 1110.23 361.844 1101 361.844 1089.6C361.844 1078.21 371.077 1068.97 382.466 1068.97Z" fill="#E5E0D5"/>
<path fill-rule="evenodd" clip-rule="evenodd" d="M591.663 581.501C652.477 581.501 701.776 532.187 701.776 471.355C701.776 459.95 711.02 450.703 722.422 450.703C733.825 450.703 743.069 459.95 743.069 471.355C743.069 554.998 675.282 622.805 591.663 622.805C580.261 622.805 571.017 613.559 571.017 602.153C571.017 590.747 580.261 581.501 591.663 581.501Z" fill="#B4D51E"/>
<path fill-rule="evenodd" clip-rule="evenodd" d="M583.39 332.236C572 332.236 562.768 323 562.768 311.607C562.768 300.215 572 290.979 583.39 290.979C594.779 290.979 604.013 300.215 604.013 311.607C604.013 323 594.779 332.236 583.39 332.236Z" fill="#FD6234"/>
<path fill-rule="evenodd" clip-rule="evenodd" d="M727.749 201.98C716.36 201.98 707.126 192.744 707.126 181.351C707.126 169.959 716.36 160.723 727.749 160.723C739.138 160.723 748.372 169.959 748.372 181.351C748.372 192.744 739.138 201.98 727.749 201.98Z" fill="#FD6234"/>
<path fill-rule="evenodd" clip-rule="evenodd" d="M1041.21 623.984C1041.21 635.377 1050.45 644.613 1061.84 644.613C1073.23 644.613 1082.46 635.377 1082.46 623.984C1082.46 612.592 1073.23 603.355 1061.84 603.355C1050.45 603.355 1041.21 612.592 1041.21 623.984Z" fill="#FD6234"/>
<path fill-rule="evenodd" clip-rule="evenodd" d="M986.417 623.984C986.417 635.377 995.65 644.613 1007.04 644.613C1018.43 644.613 1027.66 635.377 1027.66 623.984C1027.66 612.592 1018.43 603.355 1007.04 603.355C995.65 603.355 986.417 612.592 986.417 623.984Z" fill="#FD6234"/>
<g style="mix-blend-mode:multiply">
<path fill-rule="evenodd" clip-rule="evenodd" d="M1390.92 1110.23C1349.09 1110.23 1315.2 1076.37 1315.2 1034.59V897.068C1315.2 855.294 1349.09 821.43 1390.92 821.43C1432.74 821.43 1466.63 855.294 1466.63 897.068V1034.59C1466.63 1076.37 1432.74 1110.23 1390.92 1110.23ZM1425.33 1034.59V897.068C1425.33 878.08 1409.93 862.687 1390.92 862.687C1371.9 862.687 1356.5 878.08 1356.5 897.068V1034.59C1356.5 1053.58 1371.9 1068.97 1390.92 1068.97C1409.93 1068.97 1425.33 1053.58 1425.33 1034.59Z" fill="#B4D51E"/>
</g>
<path d="M1411.95 842.088C1411.95 800.373 1445.9 766.558 1487.78 766.558C1499.2 766.558 1508.46 757.335 1508.46 745.959C1508.46 734.582 1499.2 725.359 1487.78 725.359C1423.06 725.359 1370.59 777.621 1370.59 842.088C1370.59 853.465 1379.85 862.687 1391.27 862.687C1402.69 862.687 1411.95 853.465 1411.95 842.088Z" fill="#E5E0D5"/>
<path fill-rule="evenodd" clip-rule="evenodd" d="M1411.83 842.059C1411.83 830.665 1402.59 821.431 1391.21 821.431C1379.83 821.431 1370.59 830.665 1370.59 842.059C1370.59 853.452 1379.83 862.688 1391.21 862.688C1402.59 862.688 1411.83 853.452 1411.83 842.059Z" fill="#FD6234"/>
<path fill-rule="evenodd" clip-rule="evenodd" d="M1206.49 1000.07C1187.48 1000.07 1172.07 1015.48 1172.07 1034.49C1172.07 1053.51 1187.48 1068.92 1206.49 1068.92C1225.5 1068.92 1240.91 1053.51 1240.91 1034.49C1240.91 1015.48 1225.5 1000.07 1206.49 1000.07ZM1130.78 1034.49C1130.78 992.666 1164.67 958.758 1206.49 958.758C1248.31 958.758 1282.2 992.666 1282.2 1034.49C1282.2 1076.32 1248.31 1110.23 1206.49 1110.23C1164.67 1110.23 1130.78 1076.32 1130.78 1034.49Z" fill="#FFC735"/>
<path d="M793.752 900.998C805.147 900.998 814.385 910.258 814.385 921.679C814.385 940.716 829.781 956.148 848.773 956.148H986.325C1005.32 956.148 1020.71 940.716 1020.71 921.679C1020.71 910.258 1029.95 900.998 1041.35 900.998C1052.74 900.998 1061.98 910.258 1061.98 921.679C1061.98 947.062 1049.54 969.532 1030.43 983.296C1035.28 1001.09 1051.61 1014.06 1071.61 1014.06H1151.39C1162.78 1014.06 1172.02 1023.32 1172.02 1034.74C1172.02 1046.16 1162.78 1055.42 1151.39 1055.42H1071.61C1034.29 1055.42 1002.23 1031.44 991.515 997.336C989.8 997.452 988.069 997.511 986.325 997.511H848.773C806.99 997.511 773.119 963.56 773.119 921.679C773.119 910.258 782.357 900.998 793.752 900.998Z" fill="#E5E0D5"/>
<path fill-rule="evenodd" clip-rule="evenodd" d="M624.341 654.633C666.158 654.633 700.056 688.497 700.056 730.271V867.796C700.056 909.57 666.158 943.434 624.341 943.434C582.525 943.434 548.626 909.57 548.626 867.796V730.271C548.626 688.497 582.525 654.633 624.341 654.633ZM658.757 730.271C658.757 711.283 643.348 695.89 624.341 695.89C605.334 695.89 589.925 711.283 589.925 730.271V867.796C589.925 886.784 605.334 902.177 624.341 902.177C643.348 902.177 658.757 886.784 658.757 867.796V730.271Z" fill="#B4D51E"/>
<path fill-rule="evenodd" clip-rule="evenodd" d="M793.742 942.256C805.131 942.256 814.364 933.006 814.364 921.597C814.364 902.581 829.753 887.165 848.735 887.165H986.22C1005.2 887.165 1020.59 902.581 1020.59 921.597C1020.59 933.006 1029.82 942.256 1041.21 942.256C1052.6 942.256 1061.84 933.006 1061.84 921.597C1061.84 899.891 1052.72 880.318 1038.12 866.507C1052.72 852.696 1061.84 833.122 1061.84 811.417V748.063C1061.84 706.228 1027.98 672.314 986.22 672.314C974.831 672.314 965.597 681.564 965.597 692.973C965.597 704.382 974.831 713.632 986.22 713.632C1005.2 713.632 1020.59 729.048 1020.59 748.063V811.417C1020.59 830.432 1005.2 845.848 986.22 845.848H848.737C848.735 845.848 848.737 845.848 848.737 845.848C806.974 845.848 773.119 879.761 773.119 921.597C773.119 933.006 782.352 942.256 793.742 942.256Z" fill="#B4D51E"/>
<path fill-rule="evenodd" clip-rule="evenodd" d="M1061.89 921.332C1061.89 940.345 1077.3 955.758 1096.31 955.758C1115.31 955.758 1130.72 940.345 1130.72 921.332C1130.72 902.32 1115.31 886.907 1096.31 886.907C1084.9 886.907 1075.66 877.659 1075.66 866.251C1075.66 854.844 1084.9 845.596 1096.31 845.596C1138.12 845.596 1172.02 879.504 1172.02 921.332C1172.02 963.161 1138.12 997.069 1096.31 997.069C1054.49 997.069 1020.59 963.161 1020.59 921.332C1020.59 909.925 1029.84 900.677 1041.24 900.677C1052.64 900.677 1061.89 909.925 1061.89 921.332Z" fill="#463C74"/>
<path fill-rule="evenodd" clip-rule="evenodd" d="M886.195 752.177C886.195 733.164 870.787 717.751 851.78 717.751C832.772 717.751 817.364 733.164 817.364 752.177C817.364 771.19 832.772 786.603 851.78 786.603C863.184 786.603 872.429 795.851 872.429 807.258C872.429 818.666 863.184 827.914 851.78 827.914C809.963 827.914 776.065 794.006 776.065 752.177C776.065 710.348 809.963 676.44 851.78 676.44C893.596 676.44 927.494 710.348 927.494 752.177C927.494 763.585 918.249 772.833 906.845 772.833C895.441 772.833 886.195 763.585 886.195 752.177Z" fill="#463C74"/>
<path fill-rule="evenodd" clip-rule="evenodd" d="M604.013 863.805C604.013 838.413 583.609 817.996 558.643 817.996C533.677 817.996 513.273 838.413 513.273 863.805C513.273 877.833 519.49 890.35 529.331 898.772C537.996 906.186 539.025 919.239 531.631 927.926C524.238 936.615 511.221 937.647 502.558 930.233C483.895 914.262 472.028 890.408 472.028 863.805C472.028 815.755 510.715 776.637 558.643 776.637C606.572 776.637 645.258 815.755 645.258 863.805C645.258 875.226 636.025 884.485 624.636 884.485C613.246 884.485 604.013 875.226 604.013 863.805Z" fill="#FD6234"/>
<path fill-rule="evenodd" clip-rule="evenodd" d="M1061.84 921.037C1061.84 932.429 1052.6 941.666 1041.21 941.666C1029.82 941.666 1020.59 932.429 1020.59 921.037C1020.59 909.644 1029.82 900.408 1041.21 900.408C1052.6 900.408 1061.84 909.644 1061.84 921.037Z" fill="#FD6234"/>
<path fill-rule="evenodd" clip-rule="evenodd" d="M814.364 921.627C814.364 933.019 805.131 942.255 793.742 942.255C782.352 942.255 773.119 933.019 773.119 921.627C773.119 910.234 782.352 900.998 793.742 900.998C805.131 900.998 814.364 910.234 814.364 921.627Z" fill="#FD6234"/>
<path fill-rule="evenodd" clip-rule="evenodd" d="M1172.02 1034.79C1172.02 1046.18 1162.79 1055.42 1151.4 1055.42C1140.01 1055.42 1130.78 1046.18 1130.78 1034.79C1130.78 1023.4 1140.01 1014.16 1151.4 1014.16C1162.79 1014.16 1172.02 1023.4 1172.02 1034.79Z" fill="#FD6234"/>
<path fill-rule="evenodd" clip-rule="evenodd" d="M1227.41 1034.2C1227.41 1045.59 1218.17 1054.83 1206.78 1054.83C1195.4 1054.83 1186.16 1045.59 1186.16 1034.2C1186.16 1022.81 1195.4 1013.57 1206.78 1013.57C1218.17 1013.57 1227.41 1022.81 1227.41 1034.2Z" fill="#FD6234"/>
<path fill-rule="evenodd" clip-rule="evenodd" d="M945.213 942.309C926.269 942.309 910.912 957.722 910.912 976.735C910.912 995.747 926.269 1011.16 945.213 1011.16C956.579 1011.16 965.794 1020.41 965.794 1031.82C965.794 1043.22 956.579 1052.47 945.213 1052.47C903.536 1052.47 869.751 1018.56 869.751 976.735C869.751 934.906 903.536 900.998 945.213 900.998C956.579 900.998 965.794 910.246 965.794 921.654C965.794 933.061 956.579 942.309 945.213 942.309Z" fill="#FFC735"/>
<path fill-rule="evenodd" clip-rule="evenodd" d="M987.558 573.296C961.319 573.296 939.352 595.075 939.352 622.805C939.352 650.536 961.319 672.314 987.558 672.314C998.968 672.314 1008.22 681.55 1008.22 692.943C1008.22 704.335 998.968 713.571 987.558 713.571C937.731 713.571 898.033 672.547 898.033 622.805C898.033 573.064 937.731 532.039 987.558 532.039C998.968 532.039 1008.22 541.275 1008.22 552.668C1008.22 564.06 998.968 573.296 987.558 573.296Z" fill="#FFC735"/>
<path fill-rule="evenodd" clip-rule="evenodd" d="M851.47 827.99C799.039 827.99 756.536 870.553 756.536 923.058C756.536 964.91 722.657 998.837 680.864 998.837C639.071 998.837 605.191 964.91 605.191 923.058C605.191 911.644 614.432 902.391 625.829 902.391C637.227 902.391 646.467 911.644 646.467 923.058C646.467 942.081 661.867 957.503 680.864 957.503C699.86 957.503 715.26 942.081 715.26 923.058C715.26 847.726 776.243 786.656 851.47 786.656C862.867 786.656 872.108 795.91 872.108 807.323C872.108 818.737 862.867 827.99 851.47 827.99Z" fill="#FFC735"/>
<path d="M628.76 654.632C715.321 654.632 785.493 584.44 785.493 497.854C785.493 486.462 794.726 477.226 806.115 477.226C817.505 477.226 826.738 486.462 826.738 497.854C826.738 607.226 738.1 695.89 628.76 695.89C617.371 695.89 608.138 686.653 608.138 675.261C608.138 663.868 617.371 654.632 628.76 654.632Z" fill="#E5E0D5"/>
<path d="M1236.79 -37.8188C1162.99 -37.8188 1103.16 22.0261 1103.16 95.8484C1103.16 107.264 1093.91 116.519 1082.5 116.519C1071.09 116.519 1061.84 107.264 1061.84 95.8484C1061.84 -0.805649 1140.17 -79.1592 1236.79 -79.1592C1248.21 -79.1592 1257.46 -69.9049 1257.46 -58.489C1257.46 -47.0731 1248.21 -37.8188 1236.79 -37.8188Z" fill="#E5E0D5"/>
<path fill-rule="evenodd" clip-rule="evenodd" d="M1200.89 906.303C1200.89 853.895 1158.42 811.411 1106.03 811.411C1094.64 811.411 1085.41 802.175 1085.41 790.782C1085.41 779.389 1094.64 770.153 1106.03 770.153C1181.2 770.153 1242.14 831.11 1242.14 906.303C1242.14 917.695 1232.9 926.931 1221.51 926.931C1210.13 926.931 1200.89 917.695 1200.89 906.303Z" fill="#FD6234"/>
<path fill-rule="evenodd" clip-rule="evenodd" d="M-30.5762 974.083C-30.5762 1026.49 11.8958 1068.97 64.2879 1068.97C75.6774 1068.97 84.9108 1078.21 84.9108 1089.6C84.9108 1101 75.6774 1110.23 64.2879 1110.23C-10.8832 1110.23 -71.8215 1049.28 -71.8215 974.083C-71.8215 962.69 -62.5885 953.454 -51.1989 953.454C-39.8094 953.454 -30.5762 962.69 -30.5762 974.083Z" fill="#C6C3C6"/>
<path fill-rule="evenodd" clip-rule="evenodd" d="M513.306 764.784C478.433 764.784 450.162 793.063 450.162 827.946C450.162 839.321 440.943 848.543 429.572 848.543C418.2 848.543 408.981 839.321 408.981 827.946C408.981 770.312 455.688 723.592 513.306 723.592C524.677 723.592 533.896 732.813 533.896 744.188C533.896 755.563 524.677 764.784 513.306 764.784Z" fill="#FFC735"/>
<path fill-rule="evenodd" clip-rule="evenodd" d="M965.794 921.627C965.794 933.019 956.56 942.255 945.171 942.255C933.782 942.255 924.548 933.019 924.548 921.627C924.548 910.234 933.782 900.998 945.171 900.998C956.56 900.998 965.794 910.234 965.794 921.627Z" fill="#FD6234"/>
<path fill-rule="evenodd" clip-rule="evenodd" d="M872.697 807.285C872.697 818.677 863.464 827.914 852.074 827.914C840.685 827.914 831.452 818.677 831.452 807.285C831.452 795.892 840.685 786.656 852.074 786.656C863.464 786.656 872.697 795.892 872.697 807.285Z" fill="#FD6234"/>
<path fill-rule="evenodd" clip-rule="evenodd" d="M872.108 638.13C872.108 649.522 862.874 658.758 851.485 658.758C840.096 658.758 830.862 649.522 830.862 638.13C830.862 626.737 840.096 617.501 851.485 617.501C862.874 617.501 872.108 626.737 872.108 638.13Z" fill="#FD6234"/>
<path fill-rule="evenodd" clip-rule="evenodd" d="M872.108 582.727C872.108 594.12 862.874 603.356 851.485 603.356C840.096 603.356 830.862 594.12 830.862 582.727C830.862 571.335 840.096 562.099 851.485 562.099C862.874 562.099 872.108 571.335 872.108 582.727Z" fill="#FD6234"/>
<path fill-rule="evenodd" clip-rule="evenodd" d="M832.63 355.222C832.63 366.615 823.397 375.851 812.007 375.851C800.618 375.851 791.385 366.615 791.385 355.222C791.385 343.83 800.618 334.594 812.007 334.594C823.397 334.594 832.63 343.83 832.63 355.222Z" fill="#FD6234"/>
<path fill-rule="evenodd" clip-rule="evenodd" d="M1008.22 692.943C1008.22 704.336 998.984 713.572 987.595 713.572C976.206 713.572 966.972 704.336 966.972 692.943C966.972 681.551 976.206 672.314 987.595 672.314C998.984 672.314 1008.22 681.551 1008.22 692.943Z" fill="#FD6234"/>
<path fill-rule="evenodd" clip-rule="evenodd" d="M360.371 35.1293C341.364 35.1293 325.955 19.7163 325.955 0.703537C325.955 -18.3093 341.364 -33.7223 360.371 -33.7223C379.378 -33.7223 394.787 -18.3093 394.787 0.703537C394.787 19.7163 379.378 35.1293 360.371 35.1293ZM284.656 0.703537C284.656 42.5318 318.554 76.4403 360.371 76.4403C402.187 76.4403 436.086 42.5318 436.086 0.703537C436.086 -41.1246 402.187 -75.0332 360.371 -75.0332C318.554 -75.0332 284.656 -41.1248 284.656 0.703537Z" fill="#FFC735"/>
<path fill-rule="evenodd" clip-rule="evenodd" d="M-52.3773 92.9434C-40.9877 92.9434 -31.7546 102.19 -31.7546 113.596C-31.7546 132.605 -16.3661 148.016 2.61649 148.016H140.101C159.083 148.016 174.472 132.605 174.472 113.596C174.472 102.19 183.706 92.9434 195.095 92.9434C206.484 92.9434 215.717 102.19 215.717 113.596C215.717 155.418 181.863 189.321 140.101 189.321H5.39188C5.38336 189.321 5.37469 189.321 5.36617 189.321C-13.6165 189.321 -29.005 204.731 -29.005 223.741V361.423C-29.005 380.432 -13.6165 395.843 5.36617 395.843C16.7558 395.843 25.9888 405.09 25.9888 416.495C25.9888 427.901 16.7558 437.148 5.36617 437.148C-36.3957 437.148 -70.2503 403.245 -70.2503 361.423V223.741C-70.2503 202.714 -61.6923 183.688 -47.874 169.967C-63.2977 156.103 -73 135.984 -73 113.596C-73 102.19 -63.7669 92.9434 -52.3773 92.9434Z" fill="#B4D51E"/>
<path d="M145.522 38.3204C156.415 4.69308 188.074 -19.6309 225.431 -19.6309H305.257C316.658 -19.6309 325.901 -10.4167 325.901 0.949615C325.901 12.3158 316.658 21.5301 305.257 21.5301H225.431C205.917 21.5301 189.462 34.5899 184.383 52.4201C203.367 66.1333 215.717 88.4335 215.717 113.614C215.717 124.983 206.484 134.2 195.095 134.2C183.706 134.2 174.472 124.983 174.472 113.614C174.472 94.6643 159.083 79.3026 140.101 79.3026H2.61648C-16.3661 79.3026 -31.7546 94.6643 -31.7546 113.614C-31.7546 124.983 -40.9877 134.2 -52.3773 134.2C-63.7669 134.2 -73 124.983 -73 113.614C-73 71.9244 -39.1454 38.1295 2.61648 38.1295H140.101C141.924 38.1295 143.731 38.1938 145.522 38.3204H145.522Z" fill="#E5E0D5"/>
<path fill-rule="evenodd" clip-rule="evenodd" d="M215.771 113.867C215.771 94.8539 231.18 79.4408 250.187 79.4408C269.194 79.4408 284.603 94.8539 284.603 113.867C284.603 132.879 269.194 148.292 250.187 148.292C238.783 148.292 229.537 157.541 229.537 168.948C229.537 180.355 238.783 189.603 250.187 189.603C292.003 189.603 325.902 155.695 325.902 113.867C325.902 72.0379 292.003 38.1299 250.187 38.1299C208.37 38.1299 174.472 72.0379 174.472 113.867C174.472 125.274 183.718 134.522 195.122 134.522C206.526 134.522 215.771 125.274 215.771 113.867Z" fill="#463C74"/>
<path fill-rule="evenodd" clip-rule="evenodd" d="M215.718 114.161C215.718 102.768 206.484 93.5322 195.095 93.5322C183.706 93.5322 174.472 102.768 174.472 114.161C174.472 125.553 183.706 134.79 195.095 134.79C206.484 134.79 215.718 125.553 215.718 114.161Z" fill="#FD6234"/>
<path fill-rule="evenodd" clip-rule="evenodd" d="M195.095 239.112C195.095 227.72 185.861 218.483 174.472 218.483C163.083 218.483 153.849 227.72 153.849 239.112C153.849 250.505 163.083 259.741 174.472 259.741C185.861 259.741 195.095 250.505 195.095 239.112Z" fill="#463C74"/>
<path fill-rule="evenodd" clip-rule="evenodd" d="M195.095 293.926C195.095 282.533 185.861 273.297 174.472 273.297C163.083 273.297 153.849 282.533 153.849 293.926C153.849 305.318 163.083 314.554 174.472 314.554C185.861 314.554 195.095 305.318 195.095 293.926Z" fill="#463C74"/>
<path fill-rule="evenodd" clip-rule="evenodd" d="M374.218 317.501C374.218 306.108 364.984 296.872 353.595 296.872C342.206 296.872 332.972 306.108 332.972 317.501C332.972 328.893 342.206 338.129 353.595 338.129C364.984 338.129 374.218 328.893 374.218 317.501Z" fill="#463C74"/>
<path fill-rule="evenodd" clip-rule="evenodd" d="M430.782 314.554C430.782 303.162 421.549 293.926 410.16 293.926C398.771 293.926 389.537 303.162 389.537 314.554C389.537 325.947 398.771 335.183 410.16 335.183C421.549 335.183 430.782 325.947 430.782 314.554Z" fill="#463C74"/>
<path fill-rule="evenodd" clip-rule="evenodd" d="M430.782 372.314C430.782 360.922 421.549 351.686 410.16 351.686C398.771 351.686 389.537 360.922 389.537 372.314C389.537 383.707 398.771 392.943 410.16 392.943C421.549 392.943 430.782 383.707 430.782 372.314Z" fill="#463C74"/>
<path fill-rule="evenodd" clip-rule="evenodd" d="M325.902 0.997824C325.902 -10.395 316.668 -19.6309 305.279 -19.6309C293.89 -19.6309 284.656 -10.395 284.656 0.997824C284.656 12.3908 293.89 21.6265 305.279 21.6265C316.668 21.6265 325.902 12.3908 325.902 0.997824Z" fill="#FD6234"/>
<path fill-rule="evenodd" clip-rule="evenodd" d="M381.288 0.997824C381.288 -10.3951 372.055 -19.6309 360.665 -19.6309C349.276 -19.6309 340.043 -10.3951 340.043 0.997824C340.043 12.3908 349.276 21.6265 360.665 21.6265C372.055 21.6265 381.288 12.3908 381.288 0.997824Z" fill="#FD6234"/>
<path fill-rule="evenodd" clip-rule="evenodd" d="M126.198 92.8891C107.254 92.8891 91.8973 77.476 91.8973 58.4633C91.8973 39.4505 107.254 24.0375 126.198 24.0375C137.564 24.0375 146.779 14.7898 146.779 3.38204C146.779 -8.02571 137.564 -17.2734 126.198 -17.2734C84.5212 -17.2734 50.7361 16.635 50.7361 58.4633C50.7361 100.292 84.5212 134.2 126.198 134.2C137.564 134.2 146.779 124.952 146.779 113.545C146.779 102.137 137.564 92.8891 126.198 92.8891Z" fill="#FFC735"/>
<path fill-rule="evenodd" clip-rule="evenodd" d="M23.632 300.998C76.0246 300.998 118.496 343.482 118.496 395.89C118.496 407.282 127.73 416.518 139.119 416.518C150.508 416.518 159.742 407.282 159.742 395.89C159.742 320.697 98.803 259.74 23.632 259.74C12.2423 259.74 3.00928 268.976 3.00928 280.369C3.00928 291.761 12.2423 300.998 23.632 300.998Z" fill="#FD6234"/>
<path fill-rule="evenodd" clip-rule="evenodd" d="M27.1672 416.518C27.1672 405.126 17.9342 395.89 6.54455 395.89C-4.84508 395.89 -14.0781 405.126 -14.0781 416.518C-14.0781 427.911 -4.84508 437.147 6.54455 437.147C17.9342 437.147 27.1672 427.911 27.1672 416.518Z" fill="#FD6234"/>
<path fill-rule="evenodd" clip-rule="evenodd" d="M927.494 807.285C927.494 818.677 918.261 827.914 906.872 827.914C895.482 827.914 886.249 818.677 886.249 807.285C886.249 795.892 895.482 786.656 906.872 786.656C918.261 786.656 927.494 795.892 927.494 807.285Z" fill="#463C74"/>
<path fill-rule="evenodd" clip-rule="evenodd" d="M982.292 807.285C982.292 818.677 973.058 827.914 961.669 827.914C950.28 827.914 941.046 818.677 941.046 807.285C941.046 795.892 950.28 786.656 961.669 786.656C973.058 786.656 982.292 795.892 982.292 807.285Z" fill="#463C74"/>
<path fill-rule="evenodd" clip-rule="evenodd" d="M645.258 675.261C645.258 686.654 636.025 695.89 624.636 695.89C613.246 695.89 604.013 686.654 604.013 675.261C604.013 663.869 613.246 654.633 624.636 654.633C636.025 654.633 645.258 663.869 645.258 675.261Z" fill="#FD6234"/>
<path fill-rule="evenodd" clip-rule="evenodd" d="M646.437 922.805C646.437 934.198 637.203 943.434 625.814 943.434C614.425 943.434 605.191 934.198 605.191 922.805C605.191 911.413 614.425 902.177 625.814 902.177C637.203 902.177 646.437 911.413 646.437 922.805Z" fill="#FD6234"/>
<path fill-rule="evenodd" clip-rule="evenodd" d="M876.301 108.267C852.994 108.267 833.877 127.291 833.877 151.035C833.877 174.777 852.994 193.801 876.301 193.801C960.994 193.801 1029.43 262.765 1029.43 347.56C1029.43 358.952 1020.18 368.189 1008.77 368.189C997.364 368.189 988.116 358.952 988.116 347.56C988.116 285.304 937.932 235.058 876.301 235.058C829.932 235.058 792.563 197.316 792.563 151.035C792.563 104.752 829.932 67.0098 876.301 67.0098C887.71 67.0098 896.958 76.2459 896.958 87.6384C896.958 99.031 887.71 108.267 876.301 108.267Z" fill="#FFC735"/>
<path fill-rule="evenodd" clip-rule="evenodd" d="M987.595 347.607C987.595 410.23 937.535 460.631 876.232 460.631C864.843 460.631 855.61 469.887 855.61 481.306C855.61 492.724 864.843 501.981 876.232 501.981C960.717 501.981 1028.84 432.663 1028.84 347.607C1028.84 336.189 1019.61 326.932 1008.22 326.932C996.828 326.932 987.595 336.189 987.595 347.607Z" fill="#FD6234"/>
<path fill-rule="evenodd" clip-rule="evenodd" d="M1008.22 368.189C996.828 368.189 987.595 358.953 987.595 347.56C987.595 336.168 996.828 326.932 1008.22 326.932C1019.61 326.932 1028.84 336.168 1028.84 347.56C1028.84 358.953 1019.61 368.189 1008.22 368.189Z" fill="#463C74"/>
<path fill-rule="evenodd" clip-rule="evenodd" d="M727.749 222.609C739.138 222.609 748.372 231.859 748.372 243.269V332.794C748.372 344.204 739.138 353.454 727.749 353.454C716.36 353.454 707.126 344.204 707.126 332.794V243.269C707.126 231.859 716.36 222.609 727.749 222.609Z" fill="#B4D51E"/>
<path fill-rule="evenodd" clip-rule="evenodd" d="M389.497 106.519C389.497 183.307 327.267 245.555 250.501 245.555C239.101 245.555 229.859 254.8 229.859 266.204C229.859 277.607 239.101 286.852 250.501 286.852C350.067 286.852 430.782 206.114 430.782 106.519C430.782 95.1153 421.54 85.8701 410.14 85.8701C398.739 85.8701 389.497 95.1153 389.497 106.519Z" fill="#B4D51E"/>
<path d="M1068.91 150.703C1068.91 162.095 1059.66 171.332 1048.25 171.332H873.324C861.914 171.332 852.664 162.095 852.664 150.703C852.664 139.31 861.914 130.074 873.324 130.074H1048.25C1059.66 130.074 1068.91 139.31 1068.91 150.703Z" fill="#E5E0D5"/>
<path fill-rule="evenodd" clip-rule="evenodd" d="M430.782 106.499C430.782 95.1063 421.549 85.8701 410.16 85.8701C398.771 85.8701 389.537 95.1063 389.537 106.499C389.537 117.891 398.771 127.127 410.16 127.127C421.549 127.127 430.782 117.891 430.782 106.499Z" fill="#FD6234"/>
<path fill-rule="evenodd" clip-rule="evenodd" d="M1027.51 106.351C1019.46 114.407 1006.4 114.407 998.349 106.351C990.295 98.2948 990.295 85.2327 998.349 77.1779C1006.4 69.1217 1019.46 69.1217 1027.51 77.1779C1035.57 85.2327 1035.57 98.2948 1027.51 106.351Z" fill="#463C74"/>
<path fill-rule="evenodd" clip-rule="evenodd" d="M887.279 44.4651C879.225 52.5215 866.167 52.5215 858.115 44.4651C850.061 36.4091 850.061 23.348 858.115 15.292C866.167 7.23601 879.225 7.23601 887.279 15.292C895.333 23.348 895.333 36.4091 887.279 44.4651Z" fill="#463C74"/>
<path fill-rule="evenodd" clip-rule="evenodd" d="M-73 552.668C-73 541.275 -63.7669 532.039 -52.3773 532.039H13.6152C25.0049 532.039 34.2379 541.275 34.2379 552.668C34.2379 564.06 25.0049 573.296 13.6152 573.296H-52.3773C-63.7669 573.296 -73 564.06 -73 552.668Z" fill="#463C74"/>
<path fill-rule="evenodd" clip-rule="evenodd" d="M583.39 1107.28C572.001 1107.28 562.768 1098.07 562.768 1086.7V1027.68C562.768 1016.31 572.001 1007.09 583.39 1007.09C594.779 1007.09 604.013 1016.31 604.013 1027.68V1086.7C604.013 1098.07 594.779 1107.28 583.39 1107.28Z" fill="#B4D51E"/>
<path fill-rule="evenodd" clip-rule="evenodd" d="M812.04 53.3889C777.165 53.3889 748.896 81.6676 748.896 116.551C748.896 127.926 739.677 137.147 728.306 137.147C716.933 137.147 707.716 127.926 707.716 116.551C707.716 58.9169 754.423 12.1963 812.04 12.1963C823.411 12.1963 832.63 21.4175 832.63 32.7926C832.63 44.1677 823.411 53.3889 812.04 53.3889Z" fill="#FD6234"/>
<path fill-rule="evenodd" clip-rule="evenodd" d="M713.756 101.932C721.808 93.8756 734.867 93.8756 742.921 101.932C750.974 109.988 750.974 123.049 742.921 131.105C734.867 139.161 721.808 139.161 713.756 131.105C705.702 123.049 705.702 109.988 713.756 101.932Z" fill="#463C74"/>
<path fill-rule="evenodd" clip-rule="evenodd" d="M1122.53 705.32C1195.42 705.32 1254.51 646.211 1254.51 573.297C1254.51 561.904 1263.74 552.668 1275.13 552.668C1286.52 552.668 1295.76 561.904 1295.76 573.297C1295.76 668.997 1218.2 746.578 1122.53 746.578C1111.14 746.578 1101.9 737.341 1101.9 725.949C1101.9 714.556 1111.14 705.32 1122.53 705.32Z" fill="#B4D51E"/>
<path fill-rule="evenodd" clip-rule="evenodd" d="M1289.72 587.883C1281.66 595.939 1268.6 595.939 1260.55 587.883C1252.5 579.827 1252.5 566.765 1260.55 558.71C1268.6 550.654 1281.66 550.654 1289.72 558.71C1297.77 566.765 1297.77 579.827 1289.72 587.883Z" fill="#463C74"/>
<path fill-rule="evenodd" clip-rule="evenodd" d="M1348.05 587.883C1339.99 595.939 1326.93 595.939 1318.89 587.883C1310.83 579.827 1310.83 566.765 1318.89 558.71C1326.93 550.654 1339.99 550.654 1348.05 558.71C1356.1 566.765 1356.1 579.827 1348.05 587.883Z" fill="#463C74"/>
<path fill-rule="evenodd" clip-rule="evenodd" d="M1486.04 665.309C1387.17 665.309 1307.02 745.483 1307.02 844.383C1307.02 855.794 1297.77 865.045 1286.36 865.045C1274.95 865.045 1265.71 855.794 1265.71 844.383C1265.71 722.66 1364.35 623.984 1486.04 623.984C1497.44 623.984 1506.7 633.236 1506.7 644.647C1506.7 656.058 1497.44 665.309 1486.04 665.309Z" fill="#FFC735"/>
<path fill-rule="evenodd" clip-rule="evenodd" d="M1068.91 150.599C1068.96 161.992 1059.78 171.275 1048.39 171.331C1037 171.389 1027.72 162.201 1027.66 150.807C1027.6 139.414 1036.79 130.132 1048.18 130.074C1059.57 130.017 1068.85 139.206 1068.91 150.599Z" fill="#FD6234"/>
<path fill-rule="evenodd" clip-rule="evenodd" d="M1068.91 -2.05271C1068.96 9.34011 1059.78 18.6225 1048.39 18.68C1037 18.7376 1027.72 9.54859 1027.66 -1.84422C1027.6 -13.2369 1036.79 -22.5193 1048.18 -22.5769C1059.57 -22.6345 1068.85 -13.4454 1068.91 -2.05271Z" fill="#FD6234"/>
<path d="M1475.45 593.925H1393.58C1382.19 593.925 1372.94 584.689 1372.94 573.297C1372.94 561.904 1382.19 552.668 1393.58 552.668H1475.45C1486.84 552.668 1496.09 561.904 1496.09 573.297C1496.09 584.689 1486.84 593.925 1475.45 593.925Z" fill="#E5E0D5"/>
<path fill-rule="evenodd" clip-rule="evenodd" d="M1270.96 95.5951C1270.96 76.5825 1255.55 61.1693 1236.54 61.1693C1217.53 61.1693 1202.12 76.5825 1202.12 95.5951C1202.12 114.608 1217.53 130.021 1236.54 130.021C1247.94 130.021 1257.19 139.269 1257.19 150.676C1257.19 162.084 1247.94 171.332 1236.54 171.332C1194.72 171.332 1160.83 137.424 1160.83 95.5951C1160.83 53.7664 1194.72 19.8584 1236.54 19.8584C1278.36 19.8584 1312.25 53.7664 1312.25 95.5951C1312.25 107.002 1303 116.251 1291.61 116.251C1280.2 116.251 1270.96 107.002 1270.96 95.5951Z" fill="#463C74"/>
<path d="M1377.11 -46.6891C1358.16 -46.6891 1342.81 -31.2761 1342.81 -12.2633C1342.81 6.74956 1358.16 22.1625 1377.11 22.1625C1388.47 22.1625 1397.69 31.4103 1397.69 42.818C1397.69 54.2253 1388.47 63.4735 1377.11 63.4735C1335.43 63.4735 1301.65 29.565 1301.65 -12.2633C1301.65 -54.0916 1335.43 -88 1377.11 -88C1388.47 -88 1397.69 -78.7522 1397.69 -67.3445C1397.69 -55.9368 1388.47 -46.6891 1377.11 -46.6891Z" fill="#E5E0D5"/>
<path fill-rule="evenodd" clip-rule="evenodd" d="M1258.64 150.703C1258.64 162.095 1249.4 171.332 1238.01 171.332C1226.62 171.332 1217.39 162.095 1217.39 150.703C1217.39 139.31 1226.62 130.074 1238.01 130.074C1249.4 130.074 1258.64 139.31 1258.64 150.703Z" fill="#FD6234"/>
<path fill-rule="evenodd" clip-rule="evenodd" d="M1398.87 42.8445C1398.87 54.237 1389.63 63.4732 1378.25 63.4732C1366.86 63.4732 1357.62 54.237 1357.62 42.8445C1357.62 31.4516 1366.86 22.2158 1378.25 22.2158C1389.63 22.2158 1398.87 31.4516 1398.87 42.8445Z" fill="#463C74"/>
<path fill-rule="evenodd" clip-rule="evenodd" d="M1314.02 150.703C1314.02 162.095 1304.78 171.332 1293.4 171.332C1282.01 171.332 1272.78 162.095 1272.78 150.703C1272.78 139.31 1282.01 130.074 1293.4 130.074C1304.78 130.074 1314.02 139.31 1314.02 150.703Z" fill="#463C74"/>
<path fill-rule="evenodd" clip-rule="evenodd" d="M1368.82 150.703C1368.82 162.095 1359.58 171.332 1348.2 171.332C1336.81 171.332 1327.57 162.095 1327.57 150.703C1327.57 139.31 1336.81 130.074 1348.2 130.074C1359.58 130.074 1368.82 139.31 1368.82 150.703Z" fill="#463C74"/>
<path fill-rule="evenodd" clip-rule="evenodd" d="M1400.64 -13.1477C1400.64 -1.75474 1391.4 7.481 1380.01 7.481C1368.63 7.481 1359.39 -1.75474 1359.39 -13.1477C1359.39 -24.5406 1368.63 -33.7764 1380.01 -33.7764C1391.4 -33.7764 1400.64 -24.5406 1400.64 -13.1477Z" fill="#FD6234"/>
<path fill-rule="evenodd" clip-rule="evenodd" d="M1455.43 -13.1477C1455.43 -1.75474 1446.2 7.481 1434.81 7.481C1423.43 7.481 1414.19 -1.75474 1414.19 -13.1477C1414.19 -24.5406 1423.43 -33.7764 1434.81 -33.7764C1446.2 -33.7764 1455.43 -24.5406 1455.43 -13.1477Z" fill="#FD6234"/>
<path fill-rule="evenodd" clip-rule="evenodd" d="M1435.4 354.632C1424.02 354.632 1414.78 345.396 1414.78 334.004C1414.78 322.611 1424.02 313.375 1435.4 313.375C1446.79 313.375 1456.02 322.611 1456.02 334.004C1456.02 345.396 1446.79 354.632 1435.4 354.632Z" fill="#463C74"/>
</g>
</svg>

