<svg width="183" height="201" viewBox="0 0 183 201" fill="none" xmlns="http://www.w3.org/2000/svg">
<path fill-rule="evenodd" clip-rule="evenodd" d="M8.89949 -55.2073C-0.433485 -48.6738 -2.70333 -35.811 3.83036 -26.4776L40.5041 25.9106C52.9338 43.6662 71.6109 54.4497 91.4869 57.3702C87.4288 77.0454 91.1691 98.2852 103.599 116.041L139.878 167.866C163.835 202.088 210.998 210.41 245.22 186.453C254.553 179.919 256.823 167.056 250.289 157.723C243.756 148.39 230.893 146.121 221.56 152.654C206.004 163.543 184.566 159.761 173.677 144.205L137.398 92.3804C126.508 76.8251 130.291 55.387 145.846 44.4977L259.635 -35.159C293.234 -58.6799 301.405 -104.986 277.884 -138.586L244.085 -114.925C254.539 -99.9918 250.908 -79.4119 235.975 -68.9579L122.186 10.6989C106.63 21.5882 85.1922 17.8055 74.3029 2.25016L37.6291 -50.1381C31.0954 -59.4714 18.2325 -61.7407 8.89949 -55.2073Z" fill="#E3E1FF"/>
</svg>
