<svg width="161" height="246" viewBox="0 0 161 246" fill="none" xmlns="http://www.w3.org/2000/svg">
<path fill-rule="evenodd" clip-rule="evenodd" d="M-33.2694 4.85549C-24.3596 -2.2442 -11.3807 -0.777018 -4.2807 8.13312L35.5716 58.146C49.0785 75.0966 54.129 96.0635 51.299 115.952C71.3178 117.635 90.6278 127.239 104.135 144.19L143.559 193.665C169.592 226.335 164.212 273.923 131.541 299.957C122.631 307.056 109.652 305.589 102.552 296.679C95.4524 287.769 96.9199 274.79 105.83 267.69C120.68 255.857 123.125 234.226 111.292 219.376L71.8685 169.901C60.0353 155.051 38.404 152.605 23.554 164.438L-85.0757 250.999C-117.152 276.558 -163.876 271.275 -189.435 239.199L-157.169 213.488C-145.809 227.744 -125.043 230.092 -110.787 218.732L-2.1572 132.172C12.6928 120.338 15.1385 98.7071 3.30536 83.857L-36.5469 33.8442C-43.6469 24.9341 -42.1792 11.9552 -33.2694 4.85549Z" fill="#E3E1FF"/>
</svg>
